<svg xmlns="http://www.w3.org/2000/svg" version="1.1" xmlns:xlink="http://www.w3.org/1999/xlink" viewBox="0 0 200 200"><rect width="200" height="200" fill="url('#gradient')"></rect><defs><linearGradient id="gradient" gradientTransform="rotate(45 0.5 0.5)"><stop offset="0%" stop-color="#778ca7"></stop><stop offset="100%" stop-color="#000000"></stop></linearGradient></defs><g><g fill="#ffffff" transform="matrix(4.161766181635725,0,0,4.161766181635725,15.456219462240625,130.79941228798629)" stroke="#778ca7" stroke-width="0.2"><path d="M4.14-15L4.14-9.43Q5.20-10.76 6.84-10.76L6.84-10.76Q8.58-10.76 9.47-9.73Q10.36-8.69 10.38-6.67L10.38-6.67L10.38 0L7.08 0L7.08-6.59Q7.08-7.43 6.74-7.83Q6.40-8.22 5.58-8.22L5.58-8.22Q4.56-8.22 4.14-7.58L4.14-7.58L4.14 0L0.85 0L0.85-15L4.14-15ZM12.24-10.57L15.32-10.57L15.43-9.33Q16.55-10.76 18.45-10.76L18.45-10.76Q20.45-10.76 21.15-9.17L21.15-9.17Q22.23-10.76 24.26-10.76L24.26-10.76Q27.47-10.76 27.56-6.88L27.56-6.88L27.56 0L24.26 0L24.26-6.67Q24.26-7.48 23.98-7.85Q23.71-8.22 22.99-8.22L22.99-8.22Q22.01-8.22 21.53-7.35L21.53-7.35L21.54-7.22L21.54 0L18.24 0L18.24-6.65Q18.24-7.48 17.98-7.85Q17.71-8.22 16.97-8.22L16.97-8.22Q16.03-8.22 15.53-7.35L15.53-7.35L15.53 0L12.24 0L12.24-10.57ZM29.98-13.19L33.27-13.19L33.27-10.57L35.01-10.57L35.01-8.28L33.27-8.28L33.27-3.45Q33.27-2.85 33.49-2.62Q33.70-2.38 34.34-2.38L34.34-2.38Q34.82-2.38 35.16-2.44L35.16-2.44L35.16-0.09Q34.27 0.20 33.30 0.20L33.30 0.20Q31.60 0.20 30.79-0.61Q29.98-1.41 29.98-3.04L29.98-3.04L29.98-8.28L28.63-8.28L28.63-10.57L29.98-10.57L29.98-13.19ZM39.78-15L39.78 0L36.47 0L36.47-15L39.78-15Z"></path></g></g></svg>